<?xml version="1.0" standalone="no"?><!DOCTYPE svg PUBLIC "-//W3C//DTD SVG 1.1//EN" "http://www.w3.org/Graphics/SVG/1.1/DTD/svg11.dtd">
<svg t="1742544308094" class="icon" viewBox="0 0 1024 1024" version="1.1" xmlns="http://www.w3.org/2000/svg" p-id="7675" width="16" height="16"><path d="M340.010667 230.4a134.4 134.4 0 0 1 134.4-134.4h8.832c44.501333 0 85.909333 20.650667 112.746666 54.912A143.253333 143.253333 0 0 1 708.778667 96h8.832a134.4 134.4 0 0 1 93.824 230.656l-193.066667 188.266667a32 32 0 0 1-44.693333 0l-193.066667-188.266667a134.4 134.4 0 0 1-40.576-96.234667z m134.4-70.4a70.4 70.4 0 0 0-49.152 120.832l170.730666 166.485333 170.752-166.485333A70.4 70.4 0 0 0 717.589333 160h-8.832c-29.717333 0-56.938667 16.64-70.485333 43.093333l-13.802667 26.88a32 32 0 0 1-56.96 0l-13.781333-26.88a79.232 79.232 0 0 0-70.485333-43.093333h-8.832zM180.010667 589.994667a32 32 0 1 0-64 0 32 32 0 0 0 64 0z" fill="#1296db" p-id="7676"></path><path d="M856.512 595.178667a85.589333 85.589333 0 0 1 67.242667 157.397333l-334.997334 145.173333a221.44 221.44 0 0 1-187.072-5.12l-105.898666-52.970666a205.184 205.184 0 0 0-47.893334-16.917334 87.893333 87.893333 0 0 1-71.893333 37.248H91.989333A60.010667 60.010667 0 0 1 32 800V520a60.010667 60.010667 0 0 1 60.010667-60.010667H176c31.744 0 59.562667 16.810667 75.029333 42.026667h54.869334c48.426667 0 96.213333 11.264 139.52 32.917333l52.202666 26.090667a103.936 103.936 0 0 0 46.464 10.986667h79.914667a88 88 0 0 1 87.893333 84.053333l144.618667-60.885333zM264 565.973333v194.773334c20.842667 4.778667 41.130667 12.032 60.394667 21.653333l105.92 52.949333a157.44 157.44 0 0 0 133.013333 3.648l334.976-145.152a21.589333 21.589333 0 0 0-16.96-39.701333l-171.989333 72.405333c-18.837333 7.936-38.442667 13.696-58.474667 17.258667-8.469333 2.709333-17.493333 4.181333-26.88 4.181333h-168a32 32 0 0 1 0-64h147.242667c10.432 0 20.8-0.789333 31.061333-2.325333a24 24 0 0 0-10.304-45.696h-79.914667a167.893333 167.893333 0 0 1-75.093333-17.706667l-52.181333-26.090666a248 248 0 0 0-110.912-26.197334h-41.898667zM96 796.010667h80c13.248 0 24-10.752 24-24.021334v-224c0-13.226667-10.752-24-24-24H96v272z" fill="#1296db" p-id="7677"></path></svg>